<?xml version="1.0" standalone="no"?>
<!DOCTYPE svg PUBLIC "-//W3C//DTD SVG 20010904//EN"
 "http://www.w3.org/TR/2001/REC-SVG-20010904/DTD/svg10.dtd">
<svg version="1.0" xmlns="http://www.w3.org/2000/svg"
 width="834.000000pt" height="133.000000pt" viewBox="0 0 834.000000 133.000000"
 preserveAspectRatio="xMidYMid meet">
<metadata>
Created by potrace 1.16, written by Peter Selinger 2001-2019
</metadata>
<g transform="translate(0.000000,133.000000) scale(0.100000,-0.100000)"
fill="#000000" stroke="none">
<path d="M512 1310 c-18 -11 -35 -27 -38 -35 -4 -8 -10 -12 -15 -9 -5 3 -9 0
-9 -6 0 -6 -4 -8 -10 -5 -5 3 -19 -6 -32 -20 -12 -14 -29 -25 -38 -25 -9 0
-26 -9 -38 -20 -12 -11 -26 -20 -32 -20 -6 0 -8 -4 -5 -10 3 -5 -1 -10 -9 -10
-8 0 -19 -6 -23 -13 -4 -8 -21 -22 -38 -33 -16 -10 -36 -27 -43 -36 -7 -10
-20 -18 -28 -18 -8 0 -12 -4 -9 -10 3 -5 -1 -10 -10 -10 -9 0 -43 -28 -76 -62
l-59 -61 2 -451 3 -451 4168 -3 4167 -2 0 665 0 665 -3897 0 c-3880 0 -3898 0
-3931 -20z"/>
</g>
</svg>
